<svg width="47" height="47" viewBox="0 0 47 47" fill="none" xmlns="http://www.w3.org/2000/svg">
<g id="barbell 1" clip-path="url(#clip0_457_587)">
<g id="Group">
<path id="Vector" d="M46.1554 17.8645L39.9235 11.6326L41.3617 10.1945C41.6264 9.92972 41.6264 9.50045 41.3617 9.23579L40.8823 8.75644L44.2378 5.40082C44.5026 5.13607 44.5026 4.7068 44.2378 4.44213L42.3204 2.52456C42.1932 2.39738 42.0208 2.32597 41.8409 2.32597C41.661 2.32597 41.4888 2.39738 41.3615 2.52456L38.0059 5.88017L37.5265 5.40082C37.3993 5.27364 37.227 5.20223 37.0471 5.20223C36.8672 5.20223 36.6949 5.27364 36.5676 5.40082L35.1296 6.83896L28.8979 0.607076C28.6331 0.342319 28.204 0.342319 27.9391 0.607076L22.1866 6.35952C22.0595 6.48661 21.9881 6.65908 21.9881 6.83887C21.9881 7.01866 22.0595 7.19112 22.1866 7.31822L29.3772 14.5089L14.1737 29.7123L6.98313 22.5218C6.71828 22.257 6.2891 22.257 6.02434 22.5218L0.27181 28.2743C0.0070528 28.539 0.0070528 28.9683 0.27181 29.233L6.50369 35.4649L5.06556 36.903C4.8008 37.1678 4.8008 37.597 5.06556 37.8617L5.54491 38.341L2.18929 41.6967C1.92453 41.9615 1.92453 42.3908 2.18929 42.6554L4.10677 44.5729C4.23395 44.7001 4.40633 44.7715 4.58621 44.7715C4.76609 44.7715 4.93838 44.7001 5.06565 44.5729L8.42126 41.2173L8.90061 41.6967C9.02779 41.8238 9.20017 41.8952 9.38005 41.8952C9.55993 41.8952 9.73221 41.8238 9.85949 41.6967L11.2975 40.2585L17.5294 46.4904C17.6618 46.6227 17.8354 46.689 18.0088 46.689C18.1823 46.689 18.3559 46.6228 18.4883 46.4904L24.2408 40.7379C24.5056 40.4731 24.5056 40.0438 24.2408 39.7792L17.0502 32.5885L32.2536 17.3851L39.4442 24.5756C39.5766 24.708 39.7502 24.7742 39.9236 24.7742C40.0971 24.7742 40.2706 24.7081 40.403 24.5756L46.1556 18.8231C46.2827 18.696 46.3541 18.5235 46.3541 18.3438C46.3541 18.164 46.2825 17.9917 46.1554 17.8645ZM41.8409 3.96269L42.7996 4.92148L39.9234 7.79765L38.9646 6.83887L41.8409 3.96269ZM37.0472 6.83887L39.9234 9.71513L38.9646 10.6739L36.0884 7.79765L37.0472 6.83887ZM4.58621 25.8775L20.885 42.1762L19.9263 43.1349L3.62752 26.8362L4.58621 25.8775ZM4.58621 43.1349L3.62752 42.1761L6.50378 39.2999L7.46248 40.2586L4.58621 43.1349ZM9.37996 40.2586L6.50378 37.3824L7.46248 36.4237L10.3387 39.2999L9.37996 40.2586ZM18.0088 45.0525L1.71003 28.7536L2.66873 27.7949L18.9675 44.0938L18.0088 45.0525ZM21.8438 41.2174L5.545 24.9187L6.50378 23.9599L22.8026 40.2587L21.8438 41.2174ZM16.0913 31.6298L15.1326 30.6711L30.336 15.4677L31.2947 16.4264L16.0913 31.6298ZM39.9235 23.1377L23.6247 6.83887L24.5835 5.88008L26.0217 7.31822C26.1541 7.45064 26.3276 7.51681 26.5011 7.51681C26.6745 7.51681 26.8481 7.45064 26.9805 7.31822C27.2453 7.05346 27.2453 6.62419 26.9804 6.35952L25.5423 4.92148L26.5011 3.96269L42.7997 20.2615L41.841 21.2202L28.8979 8.277C28.633 8.01224 28.2039 8.01224 27.9391 8.277C27.6744 8.54176 27.6744 8.97103 27.9391 9.2357L40.8822 22.1789L39.9235 23.1377ZM43.7585 19.3027L27.4598 3.00391L28.4185 2.04521L44.7173 18.3439L43.7585 19.3027Z" fill="white"/>
</g>
</g>
<defs>
<clipPath id="clip0_457_587">
<rect width="46.2806" height="46.2806" fill="white" transform="translate(0.0742188 0.408936)"/>
</clipPath>
</defs>
</svg>
