<svg width="46" height="54" viewBox="0 0 46 54" fill="none" xmlns="http://www.w3.org/2000/svg">
<g id="Group">
<g id="Group_2">
<g id="Group_3">
<path id="Vector" d="M13.7629 53.2714C12.0367 53.2714 10.6388 51.9784 10.6388 50.3836V43.7242C10.6388 42.9376 10.9777 42.2049 11.5707 41.6661C12.9051 40.4485 13.9641 39.5433 14.8219 38.8106C16.4527 37.4205 17.2682 36.7201 17.6176 35.9119C17.9671 35.1038 17.9141 34.0585 17.7976 31.968C17.7129 30.4702 17.607 28.4337 17.5964 25.5889C17.5223 25.5566 17.4482 25.5135 17.3846 25.4704L6.83703 19.3175C6.10632 18.8972 5.60859 18.2291 5.43915 17.4425C5.2803 16.699 5.43915 15.9447 5.87334 15.309C6.79467 13.9943 8.71145 13.6064 10.1411 14.4361L19.4073 19.8347C21.5677 18.6171 25.3695 18.5524 27.4875 20.2442L36.1395 15.2012C37.5797 14.3715 39.4859 14.7594 40.4072 16.074C40.852 16.7098 41.0109 17.4641 40.8414 18.2076C40.672 18.9942 40.1743 19.6623 39.4436 20.0825L28.8959 26.2246C28.8218 26.2678 28.7583 26.3001 28.6841 26.3324C28.6735 28.8754 28.5888 30.7396 28.5253 32.1189C28.43 34.1878 28.377 35.2223 28.7053 35.9874C29.0336 36.7524 29.7855 37.399 31.2999 38.6705C32.1894 39.414 33.2802 40.3407 34.7098 41.6446C35.3135 42.1941 35.6418 42.9268 35.6418 43.7027V50.362C35.6418 51.9568 34.2439 53.2499 32.5177 53.2499C30.7915 53.2499 29.3937 51.9568 29.3937 50.362V44.9096L26.5026 42.2695C25.5389 42.7221 24.3634 42.9807 23.135 42.9807C21.9066 42.9807 20.7311 42.7329 19.7674 42.2695L16.8763 44.9096V50.362C16.8869 51.9784 15.4784 53.2714 13.7629 53.2714ZM8.48906 14.8672C7.73718 14.8672 6.99588 15.2012 6.57228 15.8262C6.26517 16.2572 6.15927 16.7744 6.27576 17.2701C6.39225 17.8089 6.74172 18.283 7.26063 18.5847L17.8082 24.7376C17.9247 24.8023 18.0518 24.8669 18.1683 24.91C18.3377 24.9747 18.4436 25.1363 18.4436 25.3195C18.4436 28.2936 18.5601 30.4056 18.6448 31.9357C18.8884 36.3861 18.8249 36.5261 15.3725 39.4787C14.5253 40.2006 13.4664 41.1058 12.1426 42.3126C11.7296 42.6898 11.4966 43.1962 11.4966 43.735V50.3943C11.4966 51.515 12.5133 52.4202 13.7735 52.4202C15.0231 52.4202 16.0503 51.515 16.0503 50.3943V44.7587C16.0503 44.6402 16.1033 44.5216 16.188 44.4354L19.4391 41.4721C19.5768 41.3536 19.7674 41.3321 19.9156 41.4075C20.7946 41.8816 21.9489 42.151 23.1562 42.151C24.3634 42.151 25.5071 41.8924 26.3967 41.4075C26.5556 41.3213 26.7462 41.3428 26.8733 41.4721L30.1244 44.4354C30.2091 44.5216 30.262 44.6294 30.262 44.7587V50.3943C30.262 51.515 31.2787 52.4202 32.5389 52.4202C33.7991 52.4202 34.8157 51.515 34.8157 50.3943V43.735C34.8157 43.1962 34.5828 42.7006 34.1697 42.3126C32.7613 41.0303 31.6705 40.1036 30.7915 39.3601C27.5616 36.6339 27.5087 36.5046 27.7099 32.0974C27.7734 30.675 27.8687 28.7354 27.8687 26.063C27.8687 25.8798 27.9746 25.7182 28.1441 25.6535C28.2711 25.6104 28.3876 25.5458 28.5041 25.4811L39.0517 19.339C39.5706 19.0373 39.9201 18.574 40.0366 18.0244C40.1425 17.5287 40.0366 17.0115 39.7295 16.5805C39.0517 15.6214 37.6433 15.3413 36.5737 15.9555L27.6569 21.1601C27.4981 21.2571 27.2969 21.2355 27.1592 21.1062C25.486 19.5653 21.7583 19.3714 19.6297 20.7183C19.492 20.8045 19.3332 20.8045 19.1955 20.7291L9.7175 15.2012C9.33626 14.9749 8.91266 14.8672 8.48906 14.8672Z" fill="white"/>
</g>
<g id="Group_4">
<path id="Vector_2" d="M23.1449 17.3988C20.3174 17.3988 18.0088 15.0497 18.0088 12.1726C18.0088 9.28478 20.3174 6.94647 23.1449 6.94647C25.9724 6.94647 28.2811 9.29555 28.2811 12.1726C28.2811 15.0605 25.9724 17.3988 23.1449 17.3988ZM23.1449 7.80852C20.7834 7.80852 18.856 9.76968 18.856 12.1726C18.856 14.5756 20.7834 16.5368 23.1449 16.5368C25.5065 16.5368 27.4339 14.5756 27.4339 12.1726C27.4339 9.76968 25.5065 7.80852 23.1449 7.80852Z" fill="white"/>
</g>
<g id="Group_5">
<path id="Vector_3" d="M45.5743 4.98662H42.2703C42.0373 4.98662 41.8467 4.79266 41.8467 4.5556C41.8467 4.31853 42.0373 4.12457 42.2703 4.12457H45.5743C45.8073 4.12457 45.9979 4.31853 45.9979 4.5556C45.9979 4.79266 45.8073 4.98662 45.5743 4.98662Z" fill="white"/>
</g>
<g id="Group_6">
<path id="Vector_4" d="M37.3474 4.98662H8.94508C8.7121 4.98662 8.52148 4.79266 8.52148 4.5556C8.52148 4.31853 8.7121 4.12457 8.94508 4.12457H37.3474C37.5804 4.12457 37.771 4.31853 37.771 4.5556C37.771 4.79266 37.5804 4.98662 37.3474 4.98662Z" fill="white"/>
</g>
<g id="Group_7">
<path id="Vector_5" d="M4.01884 4.98662H0.725357C0.492377 4.98662 0.301758 4.79266 0.301758 4.5556C0.301758 4.31853 0.492377 4.12457 0.725357 4.12457H4.02943C4.26241 4.12457 4.45303 4.31853 4.45303 4.5556C4.45303 4.79266 4.25182 4.98662 4.01884 4.98662Z" fill="white"/>
</g>
<g id="Group_8">
<path id="Vector_6" d="M8.94297 9.07001H6.4861C6.25312 9.07001 6.0625 8.87605 6.0625 8.63899V1.11761C6.0625 0.880545 6.25312 0.686584 6.4861 0.686584H8.94297C9.17595 0.686584 9.36657 0.880545 9.36657 1.11761V8.63899C9.36657 8.87605 9.17595 9.07001 8.94297 9.07001ZM6.9097 8.20796H8.51937V1.54863H6.9097V8.20796Z" fill="white"/>
</g>
<g id="Group_9">
<path id="Vector_7" d="M6.48774 7.13015H4.02028C3.7873 7.13015 3.59668 6.93619 3.59668 6.69913V3.0462C3.59668 2.80913 3.7873 2.61517 4.02028 2.61517H6.47715C6.71013 2.61517 6.90075 2.80913 6.90075 3.0462V6.69913C6.91134 6.93619 6.72072 7.13015 6.48774 7.13015ZM4.44388 6.26811H6.05355V3.47722H4.44388V6.26811Z" fill="white"/>
</g>
<g id="Group_10">
<path id="Vector_8" d="M39.8023 9.07001H37.3455C37.1125 9.07001 36.9219 8.87605 36.9219 8.63899V1.11761C36.9219 0.880545 37.1125 0.686584 37.3455 0.686584H39.8023C40.0353 0.686584 40.2259 0.880545 40.2259 1.11761V8.63899C40.2259 8.87605 40.0353 9.07001 39.8023 9.07001ZM37.7691 8.20796H39.3787V1.54863H37.7691V8.20796Z" fill="white"/>
</g>
<g id="Group_11">
<path id="Vector_9" d="M42.2701 7.13015H39.8132C39.5803 7.13015 39.3896 6.93619 39.3896 6.69913V3.0462C39.3896 2.80913 39.5803 2.61517 39.8132 2.61517H42.2701C42.5031 2.61517 42.6937 2.80913 42.6937 3.0462V6.69913C42.6937 6.93619 42.5031 7.13015 42.2701 7.13015ZM40.2263 6.26811H41.8359V3.47722H40.2263V6.26811Z" fill="white"/>
</g>
<g id="Group_12">
<path id="Vector_10" d="M41.919 53.2718H4.36696C4.13398 53.2718 3.94336 53.0778 3.94336 52.8408C3.94336 52.6037 4.13398 52.4097 4.36696 52.4097H41.9296C42.1626 52.4097 42.3532 52.6037 42.3532 52.8408C42.3532 53.0778 42.1626 53.2718 41.919 53.2718Z" fill="white"/>
</g>
</g>
</g>
</svg>
