<svg width="46" height="60" viewBox="0 0 46 60" fill="none" xmlns="http://www.w3.org/2000/svg">
<g id="Group 1124">
<path id="Vector" d="M45.8469 12.1053C45.5736 11.2193 44.7748 10.6828 43.6558 10.6331C43.4296 10.6472 43.21 10.7158 43.0154 10.8333C42.8208 10.9507 42.6568 11.1136 42.5372 11.3083C42.5172 11.3325 42.4981 11.3565 42.4786 11.3798C41.2283 11.8742 41.3977 13.6463 41.5071 14.4311C41.0518 15.2449 39.9607 16.1762 38.8654 17.0328C37.892 14.8033 36.9717 12.7828 36.2679 11.8108C36.2567 11.7951 36.2444 11.7801 36.2311 11.7661C36.1878 11.719 36.1446 11.6762 36.1013 11.6336L36.0468 11.5794C35.9673 11.4991 35.8623 11.4497 35.7503 11.44C35.6383 11.4303 35.5265 11.4609 35.4347 11.5265C33.0779 13.2103 28.9806 13.0187 27.464 11.1548C27.4008 11.0772 27.3153 11.0215 27.2193 10.9955C27.1233 10.9695 27.0217 10.9745 26.9287 11.0098C26.621 11.1263 19.3672 13.8789 16.895 15.1788C16.3453 15.4683 15.8814 15.9001 15.5506 16.4302C14.5379 18.0688 12.7953 21.0119 12.4094 21.755C12.0057 22.1657 11.694 22.6593 11.4955 23.2026C11.297 23.7458 11.2163 24.3258 11.259 24.9033C11.2838 25.0515 11.3524 25.1885 11.4559 25.2964C12.0303 25.9051 12.7742 26.3226 13.5888 26.4935C13.8701 26.5542 14.1626 26.5335 14.4327 26.4336C14.7029 26.3337 14.9396 26.1587 15.1158 25.9287L15.63 25.2635C16.5444 24.5636 16.1623 23.1521 15.9144 22.4163C16.3664 21.6903 17.7515 19.6124 18.3729 18.732C20.593 17.972 22.8492 17.3249 25.1333 16.7932C25.1152 17.0961 25.0821 17.398 25.0341 17.6976C25.0136 17.8337 24.9992 17.9384 24.9955 17.9982C24.9758 18.9072 25.0469 19.8158 25.2078 20.7103C25.279 21.195 25.353 21.6962 25.3926 22.195C25.5224 23.2976 25.3439 24.4149 24.8773 25.42C21.4512 26.6877 19.8713 29.1166 20.179 32.6439C18.7588 34.6566 17.5494 37.191 16.3866 40.5836C16.295 40.7763 16.1556 40.9416 15.982 41.0636C15.8084 41.1855 15.6065 41.2599 15.3961 41.2795C12.7479 41.965 11.1163 42.6688 10.0745 43.593C8.598 45.2167 6.98576 46.7086 5.25572 48.052C5.17863 48.046 5.10118 48.0463 5.02414 48.053C4.9526 48.0622 4.88036 48.0646 4.80838 48.0601C4.04725 47.6937 3.20992 47.5186 2.36756 47.5497C2.06565 47.583 1.77884 47.7005 1.53918 47.8891C1.29952 48.0778 1.11644 48.3301 1.0104 48.618C0.628777 49.4164 0.556377 50.3304 0.807446 51.1801C0.0797844 53.3115 -0.0205613 55.6107 0.518586 57.7987C0.553169 57.9506 0.605192 58.0979 0.673598 58.2375C0.859609 58.6183 1.17367 58.9196 1.55944 59.0873C1.75505 59.1747 1.96633 59.2206 2.18018 59.222C2.48847 59.22 2.78849 59.1209 3.03855 58.9386C3.25671 58.7754 3.43261 58.5614 3.55124 58.3146C3.66987 58.0678 3.7277 57.7957 3.7198 57.5214L3.70351 56.4127C4.3638 55.0282 5.29791 53.7955 6.44807 52.7907C6.5369 52.7057 6.6042 52.6002 6.64428 52.4833C10.4436 50.1602 14.386 48.0853 18.4474 46.2715C18.4737 46.2602 18.499 46.2465 18.5228 46.2305L18.6387 46.1528C18.8333 46.0224 19.0213 45.8967 19.2155 45.7644C19.2386 45.7485 19.2604 45.7307 19.2806 45.7112L20.1241 44.8896C22.9287 42.1749 25.5844 39.6048 27.0092 36.9584C27.4338 37.0601 27.8569 37.1702 28.28 37.2799C29.6293 37.6763 31.0128 37.9423 32.4118 38.0742L32.6492 38.0902C33.4424 38.1429 34.1918 38.1933 34.9506 38.3124C35.026 38.3242 35.3635 38.4108 35.6614 38.4871C36.1734 38.6185 36.5686 38.7183 36.8777 38.7894C35.7579 40.4062 35.039 42.2718 34.7816 44.2286C34.4351 45.9252 33.7736 47.5399 32.8321 48.987C32.7326 49.0293 32.6443 49.0944 32.5742 49.1772C32.5402 49.2154 32.5038 49.2513 32.4653 49.2846C31.8032 49.803 31.2745 50.4751 30.924 51.2441C30.8459 51.4494 30.8135 51.6696 30.8292 51.889C30.8449 52.1084 30.9083 52.3216 31.0148 52.5134C31.5484 53.3531 32.3627 53.9709 33.3092 54.254C35.1572 56.2332 37.0788 57.4818 39.0311 57.9672C39.308 58.0378 39.5974 58.0417 39.8761 57.9789C40.1548 57.916 40.4151 57.788 40.6361 57.6052C40.8385 57.4407 40.9942 57.2248 41.0871 56.9795C41.18 56.7342 41.2068 56.4684 41.1649 56.2092C41.1213 55.9378 41.0131 55.6813 40.8495 55.4617C40.6859 55.2421 40.4719 55.0661 40.226 54.9489L39.2387 54.4602C38.3181 53.2433 37.6539 51.8485 37.2873 50.3618C37.2498 50.2201 37.1735 50.0919 37.0672 49.9922C37.116 49.7467 37.1966 49.5088 37.3069 49.2846C39.6586 45.3114 42.0535 41.1829 43.2391 38.1782C43.2466 38.1561 43.2545 38.1288 43.2638 38.0906C43.2702 38.0658 43.2746 38.0404 43.2768 38.0148C43.4309 36.3001 43.0264 35.0793 42.0405 34.2823C42.0259 34.2702 42.0105 34.2592 41.9944 34.2493L41.056 33.6603C37.9935 31.7314 35.0911 29.9033 31.7442 29.1344C32.9634 26.7073 33.8495 24.1233 34.378 21.4539C34.6005 21.4676 34.8235 21.4355 35.0334 21.3596C35.2433 21.2837 35.4359 21.1656 35.5994 21.0123C35.77 20.8598 35.9091 20.6749 36.0091 20.4681C36.4113 20.8781 36.858 21.2408 37.3409 21.5493C38.5968 22.3151 39.383 21.8407 40.2134 21.1912C41.0727 20.4917 41.837 19.6806 42.4865 18.7788C42.8866 18.2478 43.258 17.6952 43.599 17.1234C43.7489 16.8782 43.8904 16.63 44.0319 16.3815L44.1492 16.1759C44.192 16.0969 44.2418 15.9824 44.2949 15.8565C44.3523 15.7081 44.4196 15.5639 44.4965 15.4248C45.6104 14.6089 46.1787 13.2143 45.8469 12.1053ZM2.78878 56.1203C2.76144 56.1835 2.74779 56.2518 2.74874 56.3208L2.76642 57.5336C2.77245 57.6514 2.75041 57.7688 2.70217 57.8762C2.65393 57.9835 2.5809 58.0775 2.48922 58.1504C2.41033 58.2115 2.31585 58.2485 2.21686 58.2572C2.11788 58.2659 2.0185 58.2458 1.9304 58.1993C1.7531 58.1202 1.6094 57.9798 1.52495 57.8034C1.49048 57.7325 1.46431 57.6577 1.44698 57.5807C0.938263 55.5277 1.04398 53.3681 1.75072 51.3759C1.7826 51.2879 1.78843 51.1923 1.76748 51.101C1.64328 50.7511 1.5916 50.3791 1.61567 50.0081C1.63973 49.6371 1.73902 49.2751 1.90736 48.9447C1.95131 48.8274 2.02642 48.7247 2.1244 48.6478C2.22239 48.571 2.33945 48.523 2.46268 48.5092C2.52668 48.5035 2.59233 48.5002 2.66005 48.5002C3.27899 48.5341 3.88577 48.6877 4.44755 48.9527C4.46437 48.9596 4.48135 48.9619 4.49826 48.9677C4.66186 50.143 5.00656 51.285 5.51982 52.3523C4.36948 53.4109 3.44081 54.6922 2.78878 56.1203ZM38.5684 55.1542C38.6116 55.2069 38.6654 55.2498 38.7262 55.2799L39.8057 55.8142C39.9129 55.8628 40.0068 55.937 40.0793 56.0306C40.1518 56.1241 40.2007 56.234 40.2218 56.3509C40.239 56.4478 40.2292 56.5476 40.1935 56.6391C40.1578 56.7307 40.0977 56.8104 40.0198 56.8693C39.9116 56.9529 39.7862 57.0106 39.6529 57.0383C39.5195 57.0659 39.3818 57.0627 39.2498 57.0289C37.4572 56.5826 35.6618 55.3943 33.9139 53.4964C33.8505 53.4274 33.7684 53.3787 33.6779 53.3566C32.943 53.1544 32.3007 52.6996 31.8615 52.0704C31.8173 52.001 31.7897 51.9221 31.7809 51.8401C31.7721 51.758 31.7823 51.675 31.8107 51.5977C32.1073 50.9757 32.545 50.4333 33.0881 50.0148C33.1225 49.9847 33.1518 49.9574 33.1784 49.9315C33.1886 49.9298 33.1971 49.9226 33.2072 49.9203C34.1925 50.4514 35.2893 50.7359 36.4057 50.7502C36.8165 52.3541 37.553 53.8539 38.5684 55.1542H38.5684ZM43.936 14.6446C43.6945 14.872 43.5161 15.1593 43.4184 15.478C43.3797 15.5693 43.3453 15.6533 43.3192 15.7018L43.2061 15.9001C43.0692 16.1404 42.9324 16.3803 42.7858 16.6209C42.461 17.1652 42.1073 17.6913 41.7263 18.1969C41.1266 19.0315 40.4209 19.7826 39.6274 20.4309C38.8546 21.0349 38.5255 21.1451 37.8366 20.7256C37.1115 20.228 36.4589 19.63 35.8978 18.9492C35.8194 18.8619 35.712 18.8067 35.596 18.7941C35.48 18.7815 35.3635 18.8123 35.2685 18.8808C35.1735 18.9493 35.1066 19.0506 35.0805 19.1656C35.0544 19.2806 35.071 19.4013 35.127 19.5048C35.195 19.635 35.2159 19.7853 35.186 19.9295C35.156 20.0737 35.0772 20.2027 34.9631 20.2943C34.8785 20.388 34.7663 20.4519 34.6432 20.4764C34.52 20.5009 34.3923 20.4849 34.2788 20.4306C34.2129 20.384 34.1364 20.3551 34.0564 20.3464C33.9764 20.3377 33.8956 20.3497 33.8214 20.3811C33.7472 20.4125 33.6821 20.4624 33.6321 20.5262C33.5821 20.5899 33.5489 20.6654 33.5354 20.7456C33.0053 23.7197 32.0196 26.592 30.614 29.2587C30.5801 29.3257 30.562 29.3997 30.5614 29.4749C30.5607 29.5501 30.5775 29.6244 30.6103 29.6919C30.643 29.7594 30.691 29.8182 30.7502 29.8637C30.8094 29.9091 30.8784 29.9399 30.9515 29.9537C34.3859 30.5949 37.3809 32.4814 40.5528 34.4791L41.4666 35.0525C42.1685 35.6335 42.4441 36.5332 42.3314 37.8783C41.1747 40.7926 38.8114 44.8656 36.476 48.8124C36.3221 49.1171 36.2088 49.4411 36.1391 49.776C35.3407 49.7272 34.5598 49.5182 33.8421 49.161C34.7477 47.6968 35.3846 46.0793 35.7223 44.3863C35.9737 42.3209 36.8041 40.3713 38.1154 38.7677C38.1224 38.7597 38.1299 38.7517 38.1369 38.7427C38.202 38.6655 38.2415 38.5695 38.2495 38.4683C38.2575 38.3672 38.2337 38.266 38.1816 38.1793C38.1294 38.0926 38.0515 38.0248 37.9589 37.9855C37.8664 37.9463 37.764 37.9376 37.6662 37.9607C37.3832 37.9339 36.3871 37.6787 35.896 37.5525C35.45 37.4381 35.2122 37.3778 35.0976 37.3595C34.2965 37.2338 33.4912 37.1801 32.712 37.1278L32.4732 37.1118C31.1336 36.9825 29.8091 36.7262 28.5169 36.3463C27.9662 36.2032 27.4156 36.06 26.8616 35.9348C26.758 35.9112 26.6495 35.9233 26.5535 35.9693C26.4575 36.0153 26.3795 36.0925 26.3319 36.1886C25.0313 38.8058 22.3277 41.4225 19.4626 44.1951L18.6484 44.988C18.4687 45.1104 18.2937 45.2276 18.1127 45.3486L18.0326 45.4023C13.974 47.2173 10.0332 49.2907 6.23402 51.6101C5.87091 50.7927 5.61457 49.9309 5.47149 49.0465C5.52327 49.0324 5.57228 49.0094 5.61643 48.9786C7.46176 47.5782 9.17481 46.008 10.7336 44.2879C11.6134 43.5101 13.17 42.851 15.6167 42.2173C15.9824 42.166 16.3286 42.0189 16.6207 41.7904C16.9128 41.562 17.1407 41.2602 17.2817 40.915C18.4473 37.5149 19.6469 35.0196 21.0564 33.062C21.1259 32.9653 21.1574 32.846 21.1449 32.7272C20.8023 29.4546 22.1434 27.4019 25.3665 26.2672C25.4758 26.2288 25.5675 26.1513 25.6243 26.0493C26.2519 24.8432 26.5026 23.4728 26.3431 22.1194C26.3007 21.5862 26.2244 21.0686 26.1504 20.5681C25.9997 19.7387 25.9317 18.8962 25.9474 18.0531C25.9502 18.013 25.9623 17.9379 25.9767 17.8412C26.126 17.2363 26.1244 16.6033 25.9721 15.9992C25.9263 15.8977 25.8471 15.8155 25.748 15.7665C25.6489 15.7175 25.5361 15.7048 25.4288 15.7306C22.887 16.3084 20.3778 17.024 17.912 17.8744C17.8216 17.9071 17.7431 17.9667 17.6867 18.0453C17.0844 18.8864 15.281 21.5862 14.9768 22.1192C14.9423 22.1797 14.9212 22.2471 14.915 22.3167C14.9088 22.3863 14.9176 22.4564 14.9408 22.5222C15.3278 23.6194 15.3578 24.2889 15.0301 24.5121C14.9886 24.5405 14.9517 24.5753 14.9207 24.6152L14.3656 25.3336C14.3018 25.4206 14.2149 25.4874 14.115 25.5264C14.015 25.5653 13.9062 25.5747 13.8012 25.5535C13.1938 25.4281 12.6359 25.1259 12.196 24.6842C12.188 24.2501 12.2692 23.8191 12.4346 23.4185C12.5999 23.0179 12.8458 22.6564 13.1565 22.3569C13.1859 22.3244 13.2107 22.288 13.2303 22.2487C13.5275 21.6517 15.349 18.5757 16.3587 16.9419C16.5992 16.5571 16.9364 16.2437 17.3357 16.0335C19.4756 14.9085 25.5359 12.5728 26.9608 12.0279C28.8367 13.9387 32.9461 14.187 35.6194 12.5554C36.6117 14.3026 37.486 16.1155 38.2365 17.982C38.2655 18.0487 38.3091 18.1079 38.3639 18.1551C38.4188 18.2024 38.4835 18.2364 38.5532 18.2547C38.623 18.2731 38.6959 18.2752 38.7666 18.2609C38.8372 18.2466 38.9038 18.2164 38.9612 18.1724C40.4108 17.0608 41.8729 15.8791 42.4292 14.7287C42.4714 14.641 42.4865 14.5424 42.4725 14.4459C42.2765 13.1126 42.4119 12.3968 42.8863 12.2569C42.9688 12.2326 43.0432 12.1863 43.1018 12.1227C43.1581 12.0618 43.2149 11.9926 43.2731 11.921C43.3677 11.7943 43.4825 11.6846 43.6129 11.5964C43.8876 11.5713 44.1632 11.6344 44.4005 11.7765C44.6379 11.9186 44.825 12.1326 44.9354 12.3883C45.1454 13.0893 44.7069 14.0801 43.936 14.6446ZM37.4158 38.1123L37.4191 38.1086L37.4168 38.1114L37.4158 38.1123Z" fill="white"/>
<path id="Vector_2" d="M30.269 6.86899C30.3299 6.85415 30.3873 6.82733 30.4379 6.79007C30.4885 6.75281 30.5313 6.70583 30.564 6.65182C30.5967 6.5978 30.6185 6.53781 30.6282 6.47527C30.6379 6.41272 30.6354 6.34886 30.6207 6.28731C30.6061 6.22576 30.5795 6.16773 30.5427 6.11655C30.5059 6.06536 30.4594 6.02202 30.406 5.98899C30.3526 5.95596 30.2933 5.93389 30.2314 5.92405C30.1696 5.9142 30.1065 5.91677 30.0456 5.93161C28.7999 6.23645 27.6427 5.97233 27.41 5.33274C27.3643 5.11878 27.3731 4.89659 27.4357 4.68703C27.4982 4.47748 27.6124 4.28744 27.7675 4.13477C28.2553 3.57247 28.8802 3.14927 29.5801 2.90737C29.8642 2.80101 30.1573 2.72096 30.4557 2.6682C30.5623 2.6496 30.6595 2.5949 30.7313 2.51307C30.8031 2.43124 30.8453 2.32715 30.8509 2.21788L30.8593 2.0538C31.2633 1.39891 32.4746 1.18257 33.5298 1.26473C34.5404 1.34794 35.4783 1.82869 36.1422 2.6037C36.1473 2.61029 36.1543 2.61877 36.1617 2.62748C36.691 3.53897 37.2096 4.70233 36.6263 5.69503C36.5882 5.75979 36.5656 5.8327 36.5604 5.9079C36.5553 5.98309 36.5676 6.05846 36.5965 6.12794L36.9619 7.00764L36.8679 6.99658C36.7431 6.98611 36.6191 7.02405 36.521 7.1027C36.4228 7.18135 36.358 7.29482 36.3395 7.42007L36.333 7.46339C36.3259 7.48823 36.3138 7.51137 36.2977 7.53142C36.2364 7.60929 36.2005 7.70446 36.1949 7.80383C36.1893 7.90319 36.2143 8.00187 36.2665 8.08626C36.1692 8.1798 36.1031 8.30165 36.0775 8.4349C36.0503 8.56019 36.0567 8.69055 36.0961 8.81248C35.8316 8.85764 35.5599 8.80624 35.3294 8.66747C35.2774 8.63182 35.2188 8.60694 35.1572 8.59426C35.0956 8.58159 35.0321 8.58137 34.9704 8.59362C34.9087 8.60587 34.85 8.63035 34.7977 8.66564C34.7454 8.70094 34.7005 8.74636 34.6656 8.79927C34.6307 8.85219 34.6065 8.91157 34.5944 8.97398C34.5823 9.03639 34.5826 9.10061 34.5951 9.16293C34.6077 9.22525 34.6323 9.28444 34.6676 9.3371C34.7028 9.38975 34.7481 9.43483 34.8006 9.46973C35.1283 9.68586 35.5127 9.7974 35.9038 9.78988C36.1362 9.7882 36.3675 9.75833 36.5928 9.7009C36.7097 9.67991 36.8192 9.62884 36.911 9.55261C37.0027 9.47637 37.0734 9.37755 37.1165 9.26563C37.1546 9.17033 37.172 9.06786 37.1676 8.96515C37.1632 8.86245 37.137 8.7619 37.0909 8.6703C37.1814 8.60375 37.2545 8.51595 37.304 8.41444C37.3534 8.31294 37.3777 8.20079 37.3748 8.08767C37.3749 8.06472 37.3738 8.04177 37.3715 8.01893C37.4753 8.01798 37.5773 7.99234 37.6694 7.94408C37.7616 7.89583 37.8411 7.82631 37.9017 7.74116C37.9806 7.64071 38.0313 7.52072 38.0486 7.39369C38.066 7.26667 38.0493 7.13726 38.0004 7.01896L37.5633 5.96646C38.2294 4.5724 37.5475 3.10207 36.9475 2.07806C36.9363 2.06088 36.9102 2.0291 36.8879 2.00273C36.0583 1.01855 34.8765 0.407402 33.6019 0.30335C32.2297 0.196949 30.5497 0.509331 29.9618 1.70306C29.9475 1.73237 29.9361 1.76305 29.9278 1.79464C29.6982 1.85057 29.472 1.92005 29.2505 2.00273C28.3905 2.30456 27.6241 2.82981 27.0282 3.5258C26.7623 3.80416 26.5746 4.14921 26.4844 4.52538C26.3942 4.90156 26.4049 5.29524 26.5152 5.66587C26.9319 6.81132 28.475 7.30661 30.269 6.86899Z" fill="white"/>
</g>
</svg>
