<svg width="46" height="45" viewBox="0 0 46 45" fill="none" xmlns="http://www.w3.org/2000/svg">
<g id="Group">
<path id="Vector" d="M3.8574 14.9962L5.0787 15.1197C8.56172 14.6643 10.9832 15.0144 13.0649 16.1148C15.0634 17.171 16.7004 18.8945 18.6458 21.2485C19.7232 20.8321 22.9208 19.6681 26.0002 21.0027C27.8943 21.8239 29.1184 23.4496 30.1405 24.8069C30.9686 25.9066 31.6425 26.8015 32.2585 26.7246L33.2879 26.5956C31.9333 22.566 31.829 18.0036 31.7322 13.7559C31.721 13.2682 31.7098 12.7846 31.6967 12.2994C30.5424 12.3456 29.898 11.9971 29.304 11.6757C28.8845 11.4488 28.4976 11.2395 27.9168 11.2967C26.157 11.4701 24.2292 9.89151 24.2236 9.8871C24.1802 9.85216 24.1437 9.81158 24.1146 9.7673C23.8951 9.46947 21.2906 5.90347 21.4661 4.7044C21.6276 3.60272 22.8265 3.27736 23.411 3.18368C23.6844 2.62772 24.342 1.36989 24.8895 0.95526C25.2867 0.654079 25.9037 0.775645 26.676 0.928088L26.6945 0.932146C27.2124 1.0343 27.8146 1.15164 28.3711 1.15587C29.1922 1.16187 31.6038 2.3927 33.0091 3.10975C33.3379 3.27754 33.609 3.41587 33.7873 3.50179L33.7891 3.5025L33.7894 3.50179C35.5042 4.32735 37.2867 10.2514 37.4484 10.7993C38.2202 12.3539 39.0684 13.7204 39.9226 15.0966C41.5199 17.6698 43.1387 20.2777 44.4012 24.3053C45.326 27.2548 45.9716 30.1376 45.9425 32.3332C45.9159 34.3242 45.3373 35.787 43.9375 36.3283C42.4947 36.8866 40.1307 37.6834 37.5735 38.4248C35.5498 39.0112 33.3981 39.5649 31.4766 39.9398C29.1584 40.3924 25.2193 40.37 21.6353 39.9511C18.6889 39.6069 15.9541 38.9864 14.4947 38.1292C13.6566 39.2717 12.9595 41.8443 12.3017 44.2725L12.2672 44.4C12.2528 44.4637 12.2265 44.526 12.1876 44.5832C12.0238 44.8228 11.699 44.8829 11.4619 44.7174C8.00977 42.3078 5.16366 39.0746 3.20218 35.2988C1.31064 31.658 0.240234 27.5143 0.240234 23.12C0.240234 22.1003 0.298674 21.09 0.412239 20.0928C0.527549 19.0811 0.699554 18.0876 0.92494 17.1158C1.08212 16.4372 1.47288 15.8724 1.99657 15.494C2.51834 15.1169 3.17217 14.9269 3.8574 14.9962ZM15.3496 34.1223C15.2458 34.0214 15.2427 33.8541 15.3425 33.7491C15.4424 33.6442 15.6076 33.641 15.7114 33.7419C16.5586 34.5673 18.4375 35.4274 20.85 36.0003C22.9336 36.4952 25.4043 36.7707 27.943 36.62C28.0869 36.612 28.2101 36.7235 28.2179 36.8691C28.2258 37.0148 28.1155 37.1392 27.9716 37.1472C25.3791 37.301 22.8573 37.0201 20.7313 36.5152C18.2289 35.9208 16.2592 35.0087 15.3496 34.1223ZM30.5056 36.8536C30.3633 36.8781 30.2283 36.7814 30.204 36.6374C30.1798 36.4936 30.2753 36.3571 30.4177 36.3326C30.6422 36.293 30.8606 36.251 31.0719 36.2068C31.2901 36.1607 31.5047 36.112 31.7147 36.0601C31.8548 36.0259 31.9957 36.1129 32.0296 36.2546C32.0634 36.3961 31.9774 36.5388 31.8374 36.5729C31.6148 36.6277 31.395 36.678 31.1781 36.7235C30.948 36.7719 30.7237 36.8153 30.5056 36.8536ZM39.1366 19.5831C39.0689 19.4546 39.1169 19.2948 39.2439 19.2263C39.3709 19.1579 39.5287 19.2066 39.5964 19.335C40.2501 20.5687 41.2776 22.76 42.094 25.1344C42.6635 26.791 43.1316 28.5391 43.3017 30.12C43.3169 30.265 43.2131 30.3951 43.0697 30.4106C42.9263 30.4259 42.7977 30.3208 42.7823 30.1759C42.6171 28.6383 42.1592 26.9302 41.6013 25.308C40.7945 22.9617 39.781 20.7996 39.1366 19.5831ZM42.8528 31.6488C42.8748 31.505 43.0081 31.4064 43.1503 31.4286C43.2924 31.4509 43.3899 31.5857 43.368 31.7295C43.3196 32.04 43.2575 32.3325 43.1808 32.6046C43.1054 32.8721 43.0135 33.1277 42.9043 33.3693C42.8445 33.5018 42.6897 33.56 42.5589 33.4995C42.4279 33.439 42.3701 33.2826 42.43 33.1501C42.5256 32.9391 42.6079 32.7082 42.6779 32.4597C42.7513 32.2 42.8092 31.929 42.8528 31.6488ZM5.03422 16.1759L3.75517 16.0466C3.3297 16.0035 2.92445 16.1208 2.60155 16.3541C2.28057 16.5861 2.04036 16.9348 1.94284 17.3556C1.72635 18.2898 1.56115 19.2433 1.45072 20.2128C1.34257 21.1624 1.28692 22.1324 1.28692 23.12C1.28692 27.3407 2.31302 31.3166 4.12622 34.8069C5.89459 38.2107 8.41065 41.1548 11.4532 43.4159C12.1677 40.7922 12.9431 38.1315 14.0216 37.0754C14.2018 36.8806 14.5022 36.8509 14.7174 37.0152C15.8672 37.8917 18.6681 38.5403 21.7539 38.9008C25.246 39.3089 29.0603 39.3354 31.2803 38.902C33.1602 38.535 35.2825 37.9886 37.2873 37.4074C39.8152 36.6747 42.1463 35.8892 43.5656 35.3401C44.4937 34.9812 44.8792 33.8688 44.8998 32.3209C44.9272 30.2573 44.3007 27.4849 43.4037 24.6238C42.1788 20.7162 40.5986 18.1707 39.0396 15.6591C38.1721 14.2615 37.311 12.874 36.5085 11.255C36.4878 11.2189 36.471 11.1799 36.4588 11.138C36.4539 11.1208 34.7124 5.11797 33.3397 4.45703L33.34 4.45615C33.1612 4.37005 32.8798 4.22643 32.539 4.05246C31.2128 3.37582 28.9372 2.2145 28.3671 2.21027C27.6977 2.20533 27.0503 2.07882 26.4947 1.96943L26.4755 1.9659C25.9545 1.86321 25.5382 1.78117 25.515 1.79881C25.0182 2.17515 24.233 3.89066 24.2308 3.8956L24.2304 3.89543C24.1517 4.06781 23.9834 4.19132 23.7829 4.20155C23.7796 4.20173 22.5882 4.25942 22.5006 4.85737C22.3909 5.60617 24.5858 8.63774 24.924 9.09983C25.2059 9.31861 26.6222 10.3642 27.8188 10.2463C28.7099 10.1585 29.2302 10.4401 29.7946 10.7453C30.3392 11.0399 30.937 11.3634 32.1346 11.2021C32.1521 11.1998 32.1697 11.1984 32.1876 11.1979C32.4757 11.1899 32.7153 11.4195 32.7234 11.7108C32.7433 12.3615 32.759 13.0443 32.7747 13.7352C32.8744 18.104 32.9821 22.8123 34.4771 26.8224C34.4982 26.8698 34.5128 26.9212 34.5193 26.9755C34.5544 27.2656 34.3503 27.5293 34.0635 27.5648L32.3853 27.7748C31.1765 27.926 30.3394 26.8141 29.3105 25.4479C28.3639 24.1906 27.2302 22.6849 25.5914 21.9745C22.7971 20.7636 19.7994 21.9287 18.9204 22.2704C18.799 22.3175 18.7074 22.3533 18.6334 22.3747C18.6069 22.383 18.5802 22.3892 18.553 22.3932L18.5385 22.3952V22.395C18.3685 22.4153 18.1919 22.3505 18.0745 22.2071C16.1036 19.8026 14.495 18.0603 12.5826 17.0493C10.6888 16.0483 8.44414 15.7381 5.16732 16.172C5.12424 16.1789 5.07958 16.1803 5.03422 16.1759Z" fill="white"/>
</g>
</svg>
