<svg width="17" height="15" viewBox="0 0 17 15" fill="none" xmlns="http://www.w3.org/2000/svg">
<path id="Vector" d="M15.2401 1.77481C14.3965 0.859317 13.2391 0.355103 11.9806 0.355103C11.04 0.355103 10.1786 0.65268 9.42018 1.2395C9.03751 1.53571 8.69077 1.8981 8.38505 2.32108C8.07946 1.89822 7.7326 1.53571 7.3498 1.2395C6.59154 0.65268 5.7301 0.355103 4.78946 0.355103C3.53104 0.355103 2.37345 0.859317 1.52991 1.77481C0.696436 2.67961 0.237305 3.9157 0.237305 5.25555C0.237305 6.63458 0.75089 7.89692 1.85353 9.2283C2.83992 10.4192 4.25759 11.6282 5.8993 13.0281C6.45988 13.5062 7.09531 14.0481 7.7551 14.6254C7.9294 14.7781 8.15306 14.8622 8.38505 14.8622C8.61692 14.8622 8.8407 14.7781 9.01476 14.6256C9.67455 14.0483 10.3103 13.5061 10.8712 13.0278C12.5126 11.6281 13.9303 10.4192 14.9167 9.22818C16.0193 7.89692 16.5328 6.63458 16.5328 5.25542C16.5328 3.9157 16.0737 2.67961 15.2401 1.77481Z" fill="#FF6726"/>
</svg>
