<svg width="96" height="30" viewBox="0 0 96 30" fill="none" xmlns="http://www.w3.org/2000/svg">
<path id="Vector" fill-rule="evenodd" clip-rule="evenodd" d="M15.069 19.1046C22.1605 23.3277 30.9287 25.8683 39.9861 25.8683C46.0945 25.8683 52.8142 24.5747 58.9929 21.8904C59.9263 21.4845 60.7069 22.516 59.7941 23.2093C54.2804 27.369 46.2886 29.5883 39.4078 29.5883C29.7599 29.5883 21.0742 25.9359 14.5032 19.8613C13.9869 19.3836 14.4495 18.7326 15.069 19.1046ZM64.4405 18.6903C65.0435 19.4554 64.2836 24.7607 61.3223 27.2929C60.8679 27.6818 60.4343 27.4746 60.6367 26.9589C61.3016 25.2595 62.7926 21.4507 62.0863 20.5249C61.3842 19.6034 57.4276 20.0895 55.6516 20.3051C55.1105 20.3728 55.028 19.8909 55.5153 19.5442C58.6666 17.2741 63.8375 17.9294 64.4405 18.6903ZM74.8401 0.470588C79.1974 0.470588 81.5557 4.30053 81.5557 9.17039C81.5557 13.8754 78.9496 17.6081 74.8401 17.6081C70.5613 17.6081 68.2319 13.7782 68.2319 9.00553C68.2319 4.2033 70.5902 0.470588 74.8401 0.470588ZM46.4869 0.322632C47.9159 0.322632 49.7827 0.711545 50.9102 1.8191C52.2678 3.11625 52.2127 4.82544 52.2038 6.69295L52.203 11.673C52.203 13.0807 52.7729 13.6978 53.3098 14.4588C53.4957 14.7293 53.537 15.0548 53.2974 15.2577C52.6986 15.7692 51.633 16.7204 51.0465 17.253L51.0424 17.2445C50.8483 17.4221 50.5674 17.4348 50.3485 17.3164C49.3738 16.4879 49.1962 16.1032 48.6634 15.3127C47.0527 16.9951 45.9086 17.4982 43.8229 17.4982C41.349 17.4982 39.4285 15.9383 39.4285 12.8143C39.4285 10.3752 40.7171 8.71384 42.5591 7.9022C44.1533 7.18356 46.3795 7.05674 48.0811 6.85805V6.46914C48.0811 5.75473 48.1348 4.90926 47.7218 4.29208C47.3666 3.7383 46.681 3.51002 46.0739 3.51002C44.9546 3.51002 43.9592 4.09762 43.7156 5.31508C43.666 5.58563 43.4719 5.85195 43.2034 5.86464L40.3578 5.55181C40.1182 5.49686 39.8498 5.29818 39.92 4.92195C40.5725 1.38792 43.6949 0.322632 46.4869 0.322632ZM7.99002 0.322632C9.41903 0.322632 11.2858 0.711545 12.4134 1.8191C13.8424 3.18452 13.7061 5.00649 13.7061 6.9891V11.673C13.7061 13.0807 14.2761 13.6978 14.813 14.4588C15.003 14.7293 15.0443 15.0548 14.8047 15.2577C14.2058 15.7692 13.1403 16.7204 12.5538 17.253L12.5455 17.2445C12.3514 17.4221 12.0706 17.4348 11.8517 17.3164C10.877 16.4879 10.7035 16.1032 10.1666 15.3127C8.55584 16.9951 7.41593 17.4982 5.32609 17.4982C2.85627 17.4982 0.931641 15.9383 0.931641 12.8143C0.931641 10.3752 2.22437 8.71384 4.06227 7.9022C5.6565 7.18356 7.88263 7.05674 9.58424 6.85805V6.46914C9.58424 5.75473 9.63793 4.90926 9.22905 4.29208C8.86973 3.7383 8.18413 3.51002 7.58113 3.51002C6.46187 3.51002 5.46238 4.09762 5.2187 5.31508C5.16914 5.58563 4.97503 5.85195 4.7107 5.86464L1.86092 5.55181C1.62137 5.49686 1.35704 5.29818 1.42312 4.92195C2.07981 1.38792 5.19805 0.322632 7.99002 0.322632ZM32.7294 0.470588C33.9602 0.470588 35.3066 0.990547 36.1285 2.15728C37.0578 3.45507 36.8678 5.34045 36.8678 6.99333L36.8637 16.7288C36.8637 17.0374 36.6117 17.2868 36.2979 17.2868H33.3655C33.0722 17.2657 32.8368 17.0247 32.8368 16.7288V8.55321C32.8368 7.9022 32.8946 6.27891 32.7542 5.66172C32.5353 4.62604 31.8786 4.33435 31.0278 4.33435C30.3174 4.33435 29.574 4.82049 29.2725 5.59832C29.038 6.20329 29.0034 7.12537 28.9996 7.91702L28.9999 16.7288C28.9999 17.0374 28.748 17.2868 28.4341 17.2868H25.5017C25.2044 17.2657 24.9731 17.0247 24.9731 16.7288L24.9689 8.55321C24.9689 6.83269 25.2457 4.30053 23.16 4.30053C21.2605 4.30053 21.1375 6.30022 21.1319 8.00064L21.1321 16.7288C21.1321 17.0374 20.8801 17.2868 20.5662 17.2868H17.6297C17.3489 17.2657 17.1258 17.0501 17.1052 16.7753V1.34987C17.1052 1.04128 17.3571 0.796092 17.671 0.796092H20.4093C20.6943 0.808765 20.9214 1.03282 20.9421 1.31182V3.32825H20.9958C21.7103 1.37946 23.0526 0.470588 24.8616 0.470588C26.6995 0.470588 27.8476 1.37946 28.6737 3.32825C29.384 1.37946 30.9989 0.470588 32.7294 0.470588ZM91.6167 0.470588C92.9342 0.470588 94.2187 0.956729 95.0447 2.28833C95.8129 3.52271 95.8129 5.59832 95.8129 7.09055V16.8007C95.7798 17.0712 95.5362 17.2868 95.2471 17.2868H92.3023C92.0338 17.2657 91.8108 17.0628 91.7819 16.8007V8.42216C91.7819 6.73546 91.9719 4.26671 89.944 4.26671C89.2295 4.26671 88.5728 4.75708 88.2465 5.50109C87.8335 6.44378 87.7798 7.38224 87.7798 8.42216V16.7288C87.7757 17.0374 87.5196 17.2868 87.2057 17.2868H84.2816C83.9883 17.2657 83.7529 17.0247 83.7529 16.7288L83.7488 1.29914C83.7736 1.01591 84.0173 0.796092 84.3146 0.796092H87.0364C87.2924 0.808765 87.5031 0.986321 87.5609 1.22728V3.58611H87.6146C88.4365 1.47669 89.5888 0.470588 91.6167 0.470588ZM65.9728 0.753818C66.2825 0.753818 66.5303 0.982093 66.5303 1.31182V3.20143C66.5262 3.51848 66.266 3.93275 65.8034 4.58799L60.8019 11.897C62.6604 11.8505 64.6222 12.1337 66.3073 13.106C66.6873 13.3258 66.7905 13.6471 66.8194 13.9642V16.3188C66.8194 16.6401 66.4725 17.0163 66.1091 16.8218C63.1395 15.2281 59.1952 15.0548 55.9118 16.8387C55.5773 17.0247 55.2262 16.6527 55.2262 16.3315V14.0952C55.2262 13.7359 55.2303 13.1229 55.5814 12.5776L61.3759 4.07226H56.3331C56.0233 4.07226 55.7755 3.84821 55.7755 3.51848V1.31182C55.7755 0.977865 56.0233 0.753818 56.3207 0.753818H65.9728ZM48.0811 9.26762C45.9541 9.26762 43.7114 9.73263 43.7114 12.2944C43.7114 13.5922 44.3722 14.4714 45.4998 14.4714C46.3217 14.4714 47.0651 13.9515 47.5318 13.106C48.11 12.0661 48.0811 11.0896 48.0811 9.91863V9.26762ZM9.58424 9.26762C7.46136 9.26762 5.2187 9.73263 5.2187 12.2944C5.2187 13.5922 5.87539 14.4714 7.00291 14.4714C7.82894 14.4714 8.56823 13.9515 9.03494 13.106C9.61315 12.0661 9.58424 11.0896 9.58424 9.91863V9.26762ZM74.8649 3.61994C72.7007 3.61994 72.5644 6.63823 72.5644 8.51939C72.5644 10.4048 72.5355 14.4292 74.8401 14.4292C77.1158 14.4292 77.2232 11.1826 77.2232 9.20421C77.2232 7.9022 77.1695 6.34655 76.7854 5.11217C76.455 4.03844 75.7983 3.61994 74.8649 3.61994Z" fill="#747873"/>
</svg>
