<svg width="95" height="15" viewBox="0 0 95 15" fill="none" xmlns="http://www.w3.org/2000/svg">
<g id="Group 119">
<path id="Vector" d="M14.0545 5.62172C14.0122 5.49572 13.9344 5.385 13.8306 5.30324C13.7268 5.22148 13.6016 5.17225 13.4704 5.16164L9.63413 4.85333L7.97405 1.13659C7.92118 1.01688 7.83518 0.915202 7.72645 0.843832C7.61771 0.772462 7.49087 0.734447 7.36124 0.734375C7.23161 0.734303 7.10473 0.772177 6.99591 0.843427C6.8871 0.914676 6.80099 1.01626 6.74799 1.13591L5.08791 4.85333L1.25161 5.16164C1.12272 5.17196 0.999494 5.21963 0.896683 5.29893C0.793873 5.37824 0.715829 5.48582 0.671888 5.60881C0.627946 5.7318 0.619968 5.86499 0.648909 5.99244C0.677849 6.1199 0.742482 6.23622 0.835075 6.3275L3.67007 9.12271L2.66743 13.5139C2.63698 13.6468 2.64674 13.7859 2.69543 13.9132C2.74413 14.0404 2.82951 14.1499 2.9405 14.2275C3.05149 14.305 3.18296 14.3471 3.31786 14.3481C3.45275 14.3491 3.58484 14.3091 3.69699 14.2333L7.36102 11.7627L11.0251 14.2333C11.1397 14.3103 11.2749 14.3499 11.4124 14.3469C11.55 14.3438 11.6833 14.2982 11.7945 14.2162C11.9056 14.1343 11.9893 14.0198 12.0343 13.8883C12.0792 13.7568 12.0833 13.6145 12.0459 13.4806L10.8151 9.12475L13.8675 6.34656C14.0673 6.16416 14.1407 5.87967 14.0545 5.62172Z" fill="#EEA404"/>
<path id="Vector_2" d="M34.242 5.62172C34.1997 5.49572 34.1219 5.385 34.0181 5.30324C33.9143 5.22148 33.7891 5.17225 33.6579 5.16164L29.8216 4.85333L28.1615 1.13659C28.1087 1.01688 28.0227 0.915202 27.9139 0.843832C27.8052 0.772462 27.6784 0.734447 27.5487 0.734375C27.4191 0.734303 27.2922 0.772177 27.1834 0.843427C27.0746 0.914676 26.9885 1.01626 26.9355 1.13591L25.2754 4.85333L21.4391 5.16164C21.3102 5.17196 21.187 5.21963 21.0842 5.29893C20.9814 5.37824 20.9033 5.48582 20.8594 5.60881C20.8154 5.7318 20.8075 5.86499 20.8364 5.99244C20.8653 6.1199 20.93 6.23622 21.0226 6.3275L23.8576 9.12271L22.8549 13.5139C22.8245 13.6468 22.8342 13.7859 22.8829 13.9132C22.9316 14.0404 23.017 14.1499 23.128 14.2275C23.239 14.305 23.3705 14.3471 23.5054 14.3481C23.6403 14.3491 23.7723 14.3091 23.8845 14.2333L27.5485 11.7627L31.2126 14.2333C31.3272 14.3103 31.4624 14.3499 31.5999 14.3469C31.7375 14.3438 31.8708 14.2982 31.982 14.2162C32.0931 14.1343 32.1768 14.0198 32.2218 13.8883C32.2667 13.7568 32.2708 13.6145 32.2334 13.4806L31.0026 9.12475L34.055 6.34656C34.2548 6.16416 34.3282 5.87967 34.242 5.62172Z" fill="#EEA404"/>
<path id="Vector_3" d="M54.4295 5.62172C54.3872 5.49572 54.3094 5.385 54.2056 5.30324C54.1018 5.22148 53.9766 5.17225 53.8454 5.16164L50.0091 4.85333L48.349 1.13659C48.2962 1.01688 48.2102 0.915202 48.1014 0.843832C47.9927 0.772462 47.8659 0.734447 47.7362 0.734375C47.6066 0.734303 47.4797 0.772177 47.3709 0.843427C47.2621 0.914676 47.176 1.01626 47.123 1.13591L45.4629 4.85333L41.6266 5.16164C41.4977 5.17196 41.3745 5.21963 41.2717 5.29893C41.1689 5.37824 41.0908 5.48582 41.0469 5.60881C41.0029 5.7318 40.995 5.86499 41.0239 5.99244C41.0528 6.1199 41.1175 6.23622 41.2101 6.3275L44.0451 9.12271L43.0424 13.5139C43.012 13.6468 43.0217 13.7859 43.0704 13.9132C43.1191 14.0404 43.2045 14.1499 43.3155 14.2275C43.4265 14.305 43.558 14.3471 43.6929 14.3481C43.8278 14.3491 43.9598 14.3091 44.072 14.2333L47.736 11.7627L51.4001 14.2333C51.5147 14.3103 51.6499 14.3499 51.7874 14.3469C51.925 14.3438 52.0583 14.2982 52.1695 14.2162C52.2806 14.1343 52.3643 14.0198 52.4093 13.8883C52.4542 13.7568 52.4583 13.6145 52.4209 13.4806L51.1901 9.12475L54.2425 6.34656C54.4423 6.16416 54.5157 5.87967 54.4295 5.62172Z" fill="#EEA404"/>
<path id="Vector_4" d="M74.617 5.62172C74.5747 5.49572 74.4969 5.385 74.3931 5.30324C74.2893 5.22148 74.1641 5.17225 74.0329 5.16164L70.1966 4.85333L68.5365 1.13659C68.4837 1.01688 68.3977 0.915202 68.2889 0.843832C68.1802 0.772462 68.0534 0.734447 67.9237 0.734375C67.7941 0.734303 67.6672 0.772177 67.5584 0.843427C67.4496 0.914676 67.3635 1.01626 67.3105 1.13591L65.6504 4.85333L61.8141 5.16164C61.6852 5.17196 61.562 5.21963 61.4592 5.29893C61.3564 5.37824 61.2783 5.48582 61.2344 5.60881C61.1904 5.7318 61.1825 5.86499 61.2114 5.99244C61.2403 6.1199 61.305 6.23622 61.3976 6.3275L64.2326 9.12271L63.2299 13.5139C63.1995 13.6468 63.2092 13.7859 63.2579 13.9132C63.3066 14.0404 63.392 14.1499 63.503 14.2275C63.614 14.305 63.7455 14.3471 63.8804 14.3481C64.0153 14.3491 64.1473 14.3091 64.2595 14.2333L67.9235 11.7627L71.5876 14.2333C71.7022 14.3103 71.8374 14.3499 71.9749 14.3469C72.1125 14.3438 72.2458 14.2982 72.357 14.2162C72.4681 14.1343 72.5518 14.0198 72.5968 13.8883C72.6417 13.7568 72.6458 13.6145 72.6084 13.4806L71.3776 9.12475L74.43 6.34656C74.6298 6.16416 74.7032 5.87967 74.617 5.62172Z" fill="#EEA404"/>
<path id="Vector_5" d="M94.8045 5.62172C94.7622 5.49572 94.6844 5.385 94.5806 5.30324C94.4768 5.22148 94.3516 5.17225 94.2204 5.16164L90.3841 4.85333L88.724 1.13659C88.6712 1.01688 88.5852 0.915202 88.4764 0.843832C88.3677 0.772462 88.2409 0.734447 88.1112 0.734375C87.9816 0.734303 87.8547 0.772177 87.7459 0.843427C87.6371 0.914676 87.551 1.01626 87.498 1.13591L85.8379 4.85333L82.0016 5.16164C81.8727 5.17196 81.7495 5.21963 81.6467 5.29893C81.5439 5.37824 81.4658 5.48582 81.4219 5.60881C81.3779 5.7318 81.37 5.86499 81.3989 5.99244C81.4278 6.1199 81.4925 6.23622 81.5851 6.3275L84.4201 9.12271L83.4174 13.5139C83.387 13.6468 83.3967 13.7859 83.4454 13.9132C83.4941 14.0404 83.5795 14.1499 83.6905 14.2275C83.8015 14.305 83.933 14.3471 84.0679 14.3481C84.2028 14.3491 84.3348 14.3091 84.447 14.2333L88.111 11.7627L91.7751 14.2333C91.8897 14.3103 92.0249 14.3499 92.1624 14.3469C92.3 14.3438 92.4333 14.2982 92.5445 14.2162C92.6556 14.1343 92.7393 14.0198 92.7843 13.8883C92.8292 13.7568 92.8333 13.6145 92.7959 13.4806L91.5651 9.12475L94.6175 6.34656C94.8173 6.16416 94.8907 5.87967 94.8045 5.62172Z" fill="#A7A5A0"/>
</g>
</svg>
