<svg width="88" height="90" viewBox="0 0 88 90" fill="none" xmlns="http://www.w3.org/2000/svg">
<path id="Vector" d="M86.5076 24.6771L64.3089 2.20965C62.6013 0.481386 59.945 0.481386 58.2374 2.20965L53.0197 7.49046C52.1659 8.25858 51.7864 9.41076 51.7864 10.5629C51.7864 10.755 51.7864 10.851 51.7864 11.043C50.5532 10.947 49.2251 11.3311 48.2764 12.2912L43.1536 17.572C41.446 19.3003 41.446 21.9887 43.1536 23.717L50.3634 31.0141L30.062 51.4652L22.8521 44.1681C21.1445 42.4398 18.4883 42.4398 16.7807 44.1681L11.563 49.4489C10.6143 50.4091 10.2349 51.7533 10.3297 53.0015C10.14 53.0015 10.0451 53.0015 9.85539 53.0015C8.71699 53.0015 7.67345 53.4815 6.81965 54.2497L1.60199 59.5305C-0.105611 61.2587 -0.105611 63.9472 1.60199 65.6754L23.8008 88.1429C24.6546 89.007 25.6981 89.3911 26.8365 89.3911C27.9749 89.3911 29.0185 89.007 29.8723 88.1429L35.0899 82.8621C35.9437 82.0939 36.3232 80.9418 36.3232 79.7896C36.3232 79.5976 36.3232 79.5015 36.3232 79.3095C36.5129 79.3095 36.6078 79.3095 36.7975 79.3095C37.9359 79.3095 38.9795 78.9255 39.8333 78.0613L45.0509 72.7805C46.7585 71.0523 46.7585 68.3638 45.0509 66.6356L37.8411 59.3384L58.1425 38.7913L65.3524 46.0884C66.2062 46.9525 67.2497 47.3366 68.3881 47.3366C69.5265 47.3366 70.5701 46.9525 71.4239 46.0884L76.6415 40.8076C77.5902 39.8474 77.9697 38.5032 77.8748 37.255C78.0645 37.255 78.1594 37.255 78.3491 37.255C79.4875 37.255 80.5311 36.775 81.3848 36.0069L86.6025 30.726C88.2152 29.0938 88.2152 26.4054 86.5076 24.6771ZM34.5207 79.6936C34.5207 80.3657 34.2361 80.9418 33.8567 81.4218L28.639 86.7027C27.6903 87.6628 26.1725 87.6628 25.3187 86.7027L3.02499 64.2352C2.07632 63.2751 2.07632 61.7388 3.02499 60.8747L8.24266 55.5939C8.71699 55.1138 9.28619 54.9218 9.95026 54.9218C10.6143 54.9218 11.1835 55.2098 11.6579 55.5939L33.8567 78.0613C34.2361 78.4454 34.5207 79.1175 34.5207 79.6936ZM43.7228 71.3403L38.5051 76.6211C37.5565 77.5813 36.0386 77.5813 35.1848 76.6211L12.986 54.1536C12.0373 53.1935 12.0373 51.6573 12.986 50.7931L18.2037 45.5123C18.678 45.0322 19.2472 44.8402 19.9113 44.8402C20.5753 44.8402 21.1445 45.0322 21.6189 45.5123L29.4928 53.4815L35.9437 60.0105L43.8177 67.9798C44.6715 68.9399 44.6715 70.4762 43.7228 71.3403ZM54.4427 39.8474L53.3992 38.7913C53.0197 38.4072 52.4505 38.4072 52.0711 38.7913C51.6916 39.1753 51.6916 39.7514 52.0711 40.1355L53.1146 41.1917L36.5129 57.9942L31.3901 52.8094L33.6669 50.5051L34.7105 51.5612C34.9002 51.7533 35.1848 51.8493 35.3745 51.8493C35.5643 51.8493 35.8489 51.7533 36.0386 51.5612C36.4181 51.1772 36.4181 50.6011 36.0386 50.217L34.9951 49.1609L51.6916 32.2623L56.8144 37.4471L54.4427 39.8474ZM75.2185 39.4634L70.0009 44.7442C69.0522 45.7043 67.5343 45.7043 66.6805 44.7442L58.8066 36.775L52.3557 30.246L44.4817 22.2767C43.5331 21.3166 43.5331 19.7804 44.4817 18.9162L49.6994 13.6354C50.1737 13.1553 50.7429 12.9633 51.407 12.9633C52.0711 12.9633 52.6403 13.1553 53.1146 13.6354L75.3134 36.1029C76.1672 36.967 76.1672 38.5032 75.2185 39.4634ZM85.1795 29.3818L79.9619 34.6626C79.1081 35.5268 77.4953 35.5268 76.6415 34.6626L54.4427 12.1952C53.9684 11.7151 53.7787 11.139 53.7787 10.4669C53.7787 9.79482 54.0633 9.21873 54.4427 8.73866L59.6604 3.45784C60.0399 3.07378 60.7039 2.88175 61.2731 2.88175C61.8423 2.88175 62.5064 3.07378 62.9807 3.55386L85.1795 26.0213C86.1282 26.9815 86.1282 28.5177 85.1795 29.3818Z" fill="#747873"/>
</svg>
