<svg width="96" height="33" viewBox="0 0 96 33" fill="none" xmlns="http://www.w3.org/2000/svg">
<g id="Group 516">
<path id="Vector" d="M12.2761 0.96167H13.1226C16.0613 1.02633 18.9521 2.2217 21.0284 4.33779C20.2618 5.12933 19.4792 5.88851 18.7285 6.68006C17.5626 5.61392 16.1572 4.79008 14.6238 4.49931C12.3559 4.01472 9.9124 4.45084 8.01175 5.75935C5.93547 7.13236 4.53003 9.45852 4.22661 11.9461C3.89119 14.4015 4.57795 16.986 6.15911 18.8922C7.67641 20.7499 9.99225 21.9129 12.3879 21.9936C14.6238 22.1229 16.9557 21.4283 18.5848 19.8453C19.8624 18.7307 20.4534 17.0345 20.645 15.3868C17.9938 15.3868 15.3426 15.403 12.6914 15.3868V12.0592H23.8553C24.4303 15.6291 23.5997 19.6514 20.9165 22.2036C19.1278 24.0128 16.6523 25.079 14.1288 25.289C11.6852 25.5313 9.16171 25.0629 6.98965 23.8675C4.38632 22.4621 2.31004 20.0876 1.28787 17.293C0.32962 14.7245 0.313619 11.8169 1.20801 9.23233C2.02255 6.87388 3.5877 4.79009 5.60013 3.33631C7.53262 1.89864 9.88039 1.10709 12.2761 0.96167Z" fill="#747873"/>
<path id="Vector_2" d="M76.3203 1.80176H79.7382V24.869C78.6049 24.869 77.4544 24.8852 76.3203 24.8529C76.3366 17.1799 76.3203 9.49088 76.3203 1.80176Z" fill="#747873"/>
<path id="Vector_3" d="M31.4577 9.79783C33.5659 9.394 35.8498 9.8463 37.5907 11.1224C39.1719 12.2532 40.2739 14.0301 40.6093 15.9685C41.0405 18.2138 40.4975 20.6692 39.0601 22.4461C37.5109 24.433 34.9715 25.4991 32.4959 25.3375C30.2279 25.2084 28.0239 24.0615 26.6823 22.1876C25.165 20.12 24.7977 17.2769 25.6282 14.8539C26.4587 12.2532 28.8065 10.2662 31.4577 9.79783ZM31.9369 12.867C31.0745 13.0932 30.2758 13.5939 29.7009 14.3047C28.1517 16.1784 28.2475 19.2315 29.9564 20.9761C30.9307 21.9776 32.4001 22.4461 33.7576 22.1715C35.0193 21.9453 36.1213 21.0892 36.7282 19.9584C37.7823 18.0361 37.4789 15.387 35.8658 13.8846C34.8277 12.9155 33.3104 12.5116 31.9369 12.867Z" fill="#747873"/>
<path id="Vector_4" d="M48.3873 9.79769C50.799 9.32921 53.4341 10.0077 55.2386 11.72C58.178 14.3853 58.4973 19.3768 55.9898 22.4459C54.4727 24.3844 52.0128 25.4505 49.5852 25.3375C47.2693 25.2728 44.9854 24.1097 43.6119 22.1875C42.0627 20.0714 41.7272 17.1638 42.6057 14.6922C43.4841 12.1723 45.7839 10.25 48.3873 9.79769ZM48.8665 12.8669C48.004 13.093 47.2054 13.5937 46.6305 14.2884C45.0972 16.1299 45.1611 19.1345 46.8061 20.8952C47.7804 21.9452 49.2977 22.4621 50.7031 22.1714C51.9489 21.9291 53.0667 21.089 53.6742 19.9583C54.712 18.0199 54.4082 15.3707 52.7793 13.8684C51.7413 12.8991 50.224 12.5115 48.8665 12.8669Z" fill="#747873"/>
<path id="Vector_5" d="M62.7453 10.7345C64.5824 9.57143 67.0254 9.24836 69.0062 10.2498C69.6292 10.5245 70.1404 10.9929 70.6352 11.4614C70.6515 11.0253 70.6352 10.573 70.6515 10.1207C71.7211 10.1368 72.7915 10.1207 73.8775 10.1368V24.3842C73.8612 26.5327 73.3182 28.8103 71.7848 30.3772C70.1085 32.1056 67.5366 32.6387 65.221 32.2834C62.7453 31.9118 60.589 30.0864 59.6312 27.7765C60.589 27.3081 61.5957 26.9365 62.5853 26.5004C63.1446 27.8249 64.2787 28.9557 65.7002 29.2142C67.1218 29.4726 68.7662 29.1173 69.6929 27.9219C70.6833 26.6942 70.6833 25.0142 70.6352 23.512C69.9003 24.2389 69.0544 24.885 68.0322 25.1273C65.8121 25.7573 63.3683 24.982 61.6594 23.4635C59.9341 21.9451 58.9119 19.6028 59.0082 17.2767C59.0564 14.6436 60.5253 12.1075 62.7453 10.7345ZM66.0514 12.8021C65.0773 12.9636 64.1669 13.5129 63.5439 14.2721C62.0423 16.0813 62.0423 18.9728 63.5602 20.7497C64.4224 21.7997 65.8121 22.3812 67.1536 22.2359C68.4151 22.1066 69.5811 21.2989 70.2041 20.1844C71.2582 18.2944 71.0826 15.7259 69.6611 14.0783C68.7825 13.0606 67.3773 12.5598 66.0514 12.8021Z" fill="#747873"/>
<path id="Vector_6" d="M83.8429 11.5584C85.76 9.74918 88.7141 9.13535 91.1742 10.0884C93.5061 10.9768 94.9913 13.2222 95.7417 15.5321C92.2757 16.986 88.826 18.4237 85.3607 19.8774C85.8392 20.7982 86.5741 21.6383 87.5645 21.9774C88.9542 22.4782 90.6149 22.3005 91.7809 21.3636C92.2438 21.0082 92.6113 20.5398 92.9624 20.0875C93.8409 20.6852 94.7195 21.2667 95.598 21.8644C94.3521 23.7543 92.2602 25.079 90.0083 25.289C87.5163 25.5958 84.8651 24.6266 83.2525 22.6559C80.6013 19.5544 80.8569 14.353 83.8429 11.5584ZM85.5518 14.5468C85.0088 15.3383 84.7851 16.3075 84.8014 17.2606C87.117 16.2914 89.4334 15.3221 91.749 14.3368C91.3653 13.4322 90.4394 12.883 89.4971 12.7376C87.9801 12.463 86.3985 13.2868 85.5518 14.5468Z" fill="#747873"/>
</g>
</svg>
