<svg width="145" height="33" viewBox="0 0 145 33" fill="none" xmlns="http://www.w3.org/2000/svg">
<g id="Group 517">
<path id="Vector" d="M15.0843 17.3247V32.1408H0.481445V17.3247H15.0843ZM31.2117 17.3247V32.1408H16.6089V17.3247H31.2117ZM75.6635 12.1523C76.2352 12.1523 76.8307 12.2248 77.4025 12.3457C78.0218 12.4665 78.4744 12.6599 78.8794 12.8291L78.9032 12.8532V15.9228L78.7841 15.8261C77.8551 15.1494 76.8307 14.811 75.8302 14.811C74.6391 14.811 73.6624 15.2219 72.9239 16.0195C72.1854 16.8171 71.8281 17.9047 71.8281 19.2824C71.8281 20.6118 72.1855 21.6752 72.9001 22.4487C73.591 23.2463 74.5676 23.6088 75.8064 23.6088C76.2352 23.6088 76.7355 23.5122 77.2834 23.3188C77.8074 23.1496 78.3315 22.8596 78.7841 22.5212L78.9032 22.4245V25.3249L78.8794 25.3491C77.8789 25.9291 76.6163 26.2433 75.1394 26.2433C73.853 26.2433 72.7095 25.9533 71.7328 25.3974C70.7085 24.8415 69.9462 24.0197 69.3983 23.0046C68.8504 21.9653 68.5645 20.8293 68.5645 19.5483C68.5645 18.0739 68.8504 16.7929 69.4221 15.6811C69.97 14.5935 70.8276 13.7234 71.8996 13.0949C72.9716 12.4665 74.258 12.1523 75.6635 12.1523ZM96.055 12.1765C98.1037 12.1765 99.7474 12.7807 100.867 14.0134C102.034 15.2461 102.606 16.938 102.606 19.0649C102.606 21.216 102.011 22.9562 100.772 24.2614C99.5569 25.5666 97.8655 26.2192 95.7453 26.2192C93.7205 26.2192 92.1006 25.5908 90.9095 24.3823C89.7184 23.1496 89.099 21.4577 89.099 19.3791C89.099 17.1555 89.6946 15.3911 90.9333 14.1101C92.1482 12.8291 93.8872 12.1765 96.055 12.1765ZM121.235 12.1765C123.284 12.1765 124.927 12.7807 126.047 14.0134C127.214 15.2461 127.786 16.938 127.786 19.0649C127.786 21.216 127.19 22.9562 125.952 24.2614C124.737 25.5666 123.045 26.2192 120.925 26.2192C118.9 26.2192 117.28 25.5908 116.089 24.3823C114.898 23.1496 114.279 21.4577 114.279 19.3791C114.279 17.1555 114.898 15.3911 116.113 14.1101C117.328 12.8291 119.067 12.1765 121.235 12.1765ZM109.229 12.1523C109.657 12.1523 110.181 12.2007 110.753 12.2973C111.325 12.4182 111.801 12.5632 112.159 12.7082L112.23 12.7324V15.6811L112.111 15.5844C111.73 15.2944 111.253 15.0769 110.729 14.9319C110.205 14.7868 109.657 14.6902 109.133 14.6902C108.538 14.6902 108.133 14.811 107.775 15.0527C107.418 15.2944 107.275 15.6569 107.275 16.0195C107.275 16.4546 107.394 16.7929 107.632 17.0346C107.918 17.3005 108.538 17.6147 109.514 18.0256C110.753 18.509 111.611 19.1132 112.302 19.6933C112.826 20.2976 113.064 21.0952 113.064 21.9895C113.064 23.2705 112.564 24.2614 111.611 25.0349C110.682 25.8325 109.372 26.195 107.775 26.195C107.251 26.195 106.656 26.0983 105.989 25.9775C105.322 25.8083 104.774 25.6633 104.321 25.4457L104.25 25.4216V22.352L104.369 22.4487C104.869 22.8112 105.465 23.1254 106.108 23.343C106.751 23.5605 107.299 23.6572 107.823 23.6572C109.181 23.6572 109.848 23.2221 109.848 22.3278C109.848 22.0136 109.776 21.7719 109.657 21.5786C109.491 21.4094 109.276 21.1918 108.943 20.9985C108.609 20.8051 108.061 20.5634 107.347 20.2492C106.489 19.8867 105.87 19.5 105.441 19.1616C105.012 18.799 104.702 18.364 104.488 17.9047C104.274 17.4455 104.178 16.8896 104.178 16.2612C104.178 15.0769 104.631 14.0617 105.584 13.3125C106.537 12.5149 107.752 12.1523 109.229 12.1523ZM135.099 5.81981C135.838 5.81981 136.409 5.91649 136.838 6.06151L136.91 6.08568V8.81688L136.791 8.74437C136.29 8.52684 135.838 8.43016 135.409 8.43016C134.789 8.43016 134.289 8.62352 133.956 9.01024C133.622 9.39695 133.432 10.0012 133.432 10.7746V12.4665H138.101V9.44529L138.172 9.42112L141.126 8.52684L141.221 8.50267V12.4665H144.342V15.0527H141.174V21.3852C141.174 22.207 141.317 22.7629 141.603 23.1013C141.912 23.4638 142.341 23.6088 142.96 23.6088C143.127 23.6088 143.342 23.5847 143.58 23.5122C143.866 23.4396 144.032 23.343 144.223 23.2221L144.342 23.1254V25.7116L144.318 25.7358C144.128 25.8325 143.794 25.9533 143.342 26.05C142.913 26.1225 142.46 26.195 142.031 26.195C139.411 26.195 138.101 24.769 138.101 21.9411V15.0527H133.432V25.8566H130.311V15.0285H128.143V12.4665H130.311V10.6054C130.311 9.66282 130.525 8.84105 130.93 8.11595C131.335 7.36668 131.883 6.81078 132.622 6.39989C133.36 6.03734 134.17 5.81981 135.099 5.81981ZM60.3221 7.1975V25.8566H57.1538V14.0134C57.1776 13.2641 57.2253 12.0315 57.2967 10.6538H57.2253C57.1062 11.1855 56.9871 11.8139 56.868 12.1281L51.3889 25.8808H49.2926L43.7659 12.249C43.6468 11.9106 43.48 11.3789 43.3371 10.6538H43.2656C43.2895 10.9438 43.3371 11.3305 43.3609 11.8381C43.378 12.5632 43.3828 13.1896 43.3842 13.7527L43.3847 25.9291H40.407V7.24584H44.9093L49.507 18.9682C49.9358 19.9834 50.1978 20.8293 50.3408 21.3852H50.4122L51.2698 18.9199L55.9865 7.1975H60.3221ZM66.4205 12.4665V25.8566H63.3237V12.4665H66.4205ZM87.622 12.249C88.1461 12.249 88.575 12.3215 88.7893 12.4665L88.8608 12.4907V15.6328L88.7417 15.5361C88.575 15.4153 88.3367 15.3186 88.0032 15.2219C87.6459 15.1736 87.36 15.101 87.0742 15.101C86.2642 15.101 85.5972 15.4636 85.0731 16.1887C84.549 16.8896 84.3108 17.8564 84.3108 19.0166V25.8566H81.214V12.4665H84.3108V14.811H84.3346C84.6443 14.0617 85.0017 13.4333 85.5257 12.9983C86.1451 12.4907 86.8597 12.249 87.622 12.249ZM95.9121 14.7627C94.7925 14.7627 93.911 15.1494 93.2678 15.9228C92.6485 16.6963 92.315 17.7839 92.315 19.2099C92.315 20.5876 92.6246 21.6752 93.2678 22.4245C93.911 23.2221 94.8163 23.5847 95.9359 23.5847C97.0555 23.5847 97.9608 23.2221 98.5325 22.4729C99.128 21.7236 99.3901 20.5876 99.4378 19.1374C99.4378 17.7114 99.1042 16.6237 98.4849 15.8745C97.8655 15.1252 97.0079 14.7627 95.9121 14.7627ZM121.068 14.7627C119.948 14.7627 119.067 15.1494 118.424 15.9228C117.804 16.6963 117.471 17.7839 117.471 19.2099C117.471 20.5876 117.781 21.6752 118.424 22.4245C119.067 23.2221 119.948 23.5847 121.092 23.5847C122.212 23.5847 123.117 23.2221 123.688 22.4729C124.284 21.7236 124.594 20.5876 124.594 19.1374C124.594 17.7114 124.26 16.6237 123.641 15.8745C123.021 15.1252 122.14 14.7627 121.068 14.7627ZM15.0843 0.96167V15.7778H0.481445V0.96167H15.0843ZM31.2117 0.96167V15.7778H16.6089V0.96167H31.2117ZM64.8959 6.81078C65.4438 6.81078 65.8965 7.00414 66.2061 7.34251C66.5635 7.70506 66.7541 8.14012 66.7541 8.64769C66.7541 9.15526 66.5635 9.59031 66.2061 9.92869C65.8726 10.2429 65.42 10.4363 64.8959 10.4363C64.3719 10.4363 63.9431 10.2671 63.5858 9.92869C63.2284 9.59031 63.0378 9.15526 63.0378 8.64769C63.0378 8.11595 63.2284 7.68089 63.5858 7.34251C63.9431 7.00414 64.3719 6.81078 64.8959 6.81078Z" fill="#747873"/>
</g>
</svg>
