<svg width="95" height="27" viewBox="0 0 95 27" fill="none" xmlns="http://www.w3.org/2000/svg">
<path id="Vector" d="M3.88841 0.683838L9.09686 15.3581V0.683838H13.1285V24.8795C11.7012 25.1323 10.2488 25.2081 8.74633 25.4099L4.16369 11.8725V25.9909C2.73639 26.1424 1.43427 26.3445 0.0820312 26.5465V0.683838H3.88841ZM85.1469 0.683838L87.7763 7.47786L90.581 0.683838H94.9633L89.8798 12.9838L94.9633 26.5465C93.4607 26.3445 91.9582 26.0666 90.4557 25.814L87.5761 18.3383L84.6465 25.2081C83.1938 24.9553 81.7916 24.8795 80.3394 24.6774L85.4979 12.8321L80.8401 0.683838H85.1469ZM28.1031 0.683838V4.72489H21.0165V10.155C22.5692 10.155 24.9481 10.0793 26.3754 10.0793V14.1202C24.5973 14.1202 22.519 14.1202 21.0165 14.196V20.2072C23.3705 20.0557 25.7243 19.8534 28.1031 19.7776V23.6669L17.0098 24.5511V0.683838H28.1031ZM77.4092 0.683838V24.4754C76.1071 24.3241 74.7549 24.2483 73.4778 24.1724V0.683838H77.4092ZM63.286 0.683838V19.5505C65.5648 19.6008 67.8685 19.7779 70.0972 19.904V23.8946C66.5164 23.6671 62.9355 23.4401 59.2795 23.3641V0.683838H63.286ZM43.0028 0.683838L43.0026 4.72498H38.8458V23.3138C37.4936 23.3138 36.1414 23.3138 34.8394 23.3641V4.72498H30.6826V0.683838H43.0028ZM56.7753 0.683838V4.72489H49.5133V9.8773H54.9974V13.9183H49.5133V23.0865H45.5816V0.683838H56.7753Z" fill="#747873"/>
</svg>
