<svg width="19" height="19" viewBox="0 0 19 19" fill="none" xmlns="http://www.w3.org/2000/svg">
<g id="Group 1134">
<circle id="Ellipse 73" cx="9.80284" cy="9.40513" r="8.50746" stroke="white" stroke-width="0.680597"/>
<path id="Vector" d="M11.4517 6.85633C11.568 6.74376 11.7227 6.68152 11.8833 6.68276C12.0438 6.68399 12.1976 6.7486 12.3122 6.86295C12.4268 6.9773 12.4933 7.13245 12.4975 7.29565C12.5017 7.45885 12.4435 7.61735 12.335 7.7377L9.04133 11.9263C8.9847 11.9883 8.91634 12.0381 8.84035 12.0727C8.76437 12.1072 8.68231 12.1258 8.59908 12.1274C8.51586 12.129 8.43318 12.1135 8.35598 12.0818C8.27879 12.0501 8.20867 12.003 8.14982 11.9431L5.9656 9.72204C5.90478 9.66441 5.85599 9.5949 5.82215 9.51768C5.78831 9.44046 5.77012 9.35709 5.76865 9.27256C5.76718 9.18803 5.78248 9.10407 5.81361 9.02568C5.84475 8.94729 5.8911 8.87608 5.94989 8.8163C6.00868 8.75652 6.07871 8.70939 6.15579 8.67773C6.23288 8.64606 6.31546 8.63051 6.39858 8.632C6.48171 8.6335 6.56369 8.652 6.63964 8.68641C6.71558 8.72081 6.78393 8.77043 6.84061 8.83228L8.56916 10.5891L11.436 6.8748C11.4412 6.86833 11.4467 6.86217 11.4525 6.85633H11.4517Z" fill="white"/>
</g>
</svg>
