<svg width="19" height="19" viewBox="0 0 19 19" fill="none" xmlns="http://www.w3.org/2000/svg">
<g id="Group 1134">
<circle id="Ellipse 73" cx="9.34093" cy="9.40513" r="8.50746" stroke="#5ABA4A" stroke-width="0.680597"/>
<path id="Vector" d="M10.3697 6.85633C10.486 6.74376 10.6407 6.68152 10.8013 6.68276C10.9618 6.68399 11.1156 6.7486 11.2302 6.86295C11.3448 6.9773 11.4112 7.13245 11.4155 7.29565C11.4197 7.45885 11.3614 7.61735 11.253 7.7377L7.9593 11.9263C7.90266 11.9883 7.83431 12.0381 7.75832 12.0727C7.68234 12.1072 7.60028 12.1258 7.51705 12.1274C7.43383 12.129 7.35115 12.1135 7.27395 12.0818C7.19676 12.0501 7.12664 12.003 7.06778 11.9431L4.88357 9.72204C4.82274 9.66441 4.77396 9.5949 4.74012 9.51768C4.70628 9.44046 4.68809 9.35709 4.68662 9.27256C4.68515 9.18803 4.70044 9.10407 4.73158 9.02568C4.76272 8.94729 4.80907 8.87608 4.86786 8.8163C4.92665 8.75652 4.99667 8.70939 5.07376 8.67773C5.15085 8.64606 5.23343 8.63051 5.31655 8.632C5.39968 8.6335 5.48166 8.652 5.55761 8.68641C5.63355 8.72081 5.7019 8.77043 5.75858 8.83228L7.48713 10.5891L10.354 6.8748C10.3592 6.86833 10.3647 6.86217 10.3705 6.85633H10.3697Z" fill="#5ABA4A"/>
</g>
</svg>
